<svg xmlns="http://www.w3.org/2000/svg" viewBox="0 0 689.51 186.92"><defs><style>.cls-1{fill:#333;}.cls-2{fill:#3e9fb2;}.cls-3{fill:#feb500;}.cls-4{fill:#f2a490;}</style></defs><title>Asset 5</title><g id="Layer_2" data-name="Layer 2"><g id="Logo"><path class="cls-1" d="M119,113.41a17.87,17.87,0,0,1-7.34-.22,17.47,17.47,0,0,1-5.91-2.77,19.79,19.79,0,0,1-4.49-4.55,26.92,26.92,0,0,1-3.08-5.68,30,30,0,0,1,.46-11.33,37.41,37.41,0,0,1,3.76-9.41,56.43,56.43,0,0,1,5.64-8.11l6.1-7.34a1,1,0,0,0,1,0,2.93,2.93,0,0,0,.74-.75,8.47,8.47,0,0,1,.73-.93,2.25,2.25,0,0,1,1-.66,4.19,4.19,0,0,1,1-1.4,15.43,15.43,0,0,1,1.29-1.09,15.18,15.18,0,0,0,1.28-1.08,5.78,5.78,0,0,0,1.06-1.41,4.54,4.54,0,0,0,1.6-.69,9.23,9.23,0,0,0,1.28-1,13.51,13.51,0,0,1,1.24-1,5.42,5.42,0,0,1,1.56-.78V51.9a8.43,8.43,0,0,0,2.93-2.12c.61-.75,1.35-1.73,2.21-2.92.67-.09,1.2-.14,1.6-.16a13.55,13.55,0,0,0,1.88-.26,10.4,10.4,0,0,1,1.56-2.36,14.89,14.89,0,0,1,2.11-1.74,7.16,7.16,0,0,0,2.93.73A4.29,4.29,0,0,1,146,44.35a2.6,2.6,0,0,0,.65,1.66,8.45,8.45,0,0,0,1.19,1c.42.31.85.64,1.28,1a2.47,2.47,0,0,1,.83,1.52.76.76,0,0,0,.59-.22q.14-.19.6-.12a9.34,9.34,0,0,0,.36,1.17,5,5,0,0,0,.42.8c.15.24.3.5.46.8a6.49,6.49,0,0,1,.41,1.07c-.31.76-.58,1.55-.83,2.39a2.69,2.69,0,0,1-1.46,1.78c0,.49.18.74.55.75s.58.22.64.65A2,2,0,0,1,151.4,60a82,82,0,0,1,4.68,8.76,69.2,69.2,0,0,0,4.77,8.73A6.22,6.22,0,0,0,161,80a17.21,17.21,0,0,0,.83,2.38c.34.77.66,1.54,1,2.32a10.44,10.44,0,0,1,.64,2.34,14.33,14.33,0,0,1,0,3.34,16.28,16.28,0,0,1-.73,3.49,14.76,14.76,0,0,1-1.47,3.17,7.43,7.43,0,0,1-2.1,2.29,12.36,12.36,0,0,1-3.67,3.21,23.74,23.74,0,0,0-4,2.94,9.78,9.78,0,0,1-2.75,1.2l-3,.85a21.73,21.73,0,0,1-2.85,1.56c-1.1.52-2.23,1-3.39,1.4a28.58,28.58,0,0,1-3.48,1,10,10,0,0,1-3.12.27,32.74,32.74,0,0,1-6.42,1.87A20.32,20.32,0,0,1,119,113.41ZM120.23,80a19.89,19.89,0,0,1-2.16,3.86c-.82,1.15-1.63,2.32-2.43,3.49a24.31,24.31,0,0,0-2.06,3.75,12.64,12.64,0,0,0-1,4.65,7.94,7.94,0,0,0,4.35,1.8,23.65,23.65,0,0,0,5.18,0q2.67-.3,5.32-.85a29.48,29.48,0,0,1,4.77-.62c0-.55.24-.84.73-.86a18.93,18.93,0,0,0,7.16-2.45q3.3-2,6.87-4a7.3,7.3,0,0,1,1.19-2,4,4,0,0,0,.83-2.43,5.41,5.41,0,0,1-.6-1.34,7.5,7.5,0,0,1-.13-1.65,37.33,37.33,0,0,1-4.13-7,49.76,49.76,0,0,0-4-7.19,2.65,2.65,0,0,1-.74,1c-.36.32-.76.28-1.19-.13a2.11,2.11,0,0,1-.83,1.27,2.44,2.44,0,0,1-1.23.38,3.69,3.69,0,0,1-1.38-.22,4.52,4.52,0,0,1-1.24-.68q-3.21,2.68-6.37,5.18a33.24,33.24,0,0,0-5.73,5.76c-.31.19-.49.26-.55.2S120.6,79.87,120.23,80Z"/><path class="cls-1" d="M183.4,100.84a3.24,3.24,0,0,0-1.1,2c-.12.78-.27,1.54-.46,2.29a4.8,4.8,0,0,1-1,2,3.11,3.11,0,0,1-2.43.88c-.24.33-.29.52-.14.56s.29.32.42.8a2.84,2.84,0,0,0-1.84.32,4.07,4.07,0,0,1-1.37.66,6.48,6.48,0,0,1-3.53-2.07,18.17,18.17,0,0,1-2.48-3.53,32.65,32.65,0,0,1-1.83-4,28.23,28.23,0,0,0-1.61-3.56c0-.24.11-.35.32-.34a3,3,0,0,0,.6,0,7.66,7.66,0,0,1-.69-2,3.65,3.65,0,0,0-.87-1.82q2.65-5.86,5.69-12.28t6.09-13q3.07-6.62,6.15-13.34t5.91-13.2a39.23,39.23,0,0,1,5,1.7,22.16,22.16,0,0,1,4.44,2.47,14.57,14.57,0,0,1,3.44,3.48A11.2,11.2,0,0,1,204,53.48c-.12.38-.27.51-.46.41s-.33,0-.45.23a2,2,0,0,1,.5.73.82.82,0,0,1-.05.46,1.75,1.75,0,0,0-.09.61,1.77,1.77,0,0,0,.46,1,.66.66,0,0,0-.64.2c-.12.17-.34.2-.64.11a3.61,3.61,0,0,1,.27,2,4.92,4.92,0,0,1-.55,1.38,7,7,0,0,0-.59,1.34,3.11,3.11,0,0,0,.13,1.87.75.75,0,0,0-.5.19,1.36,1.36,0,0,0-.23.34,1.36,1.36,0,0,1-.23.34.54.54,0,0,1-.5.1,31.73,31.73,0,0,1,.18,4.79c-.06,1.63-.12,3.29-.18,5s-.07,3.42,0,5.18a28.16,28.16,0,0,0,.73,5.43,21.73,21.73,0,0,0,6.37-6.59A36.23,36.23,0,0,0,211.41,70a67.78,67.78,0,0,0,2.2-9.86q.78-5.22,1.61-10.62a8.38,8.38,0,0,0,1.6-2.65,26,26,0,0,0,1-3.13c.28-1.07.55-2.15.83-3.25a12.77,12.77,0,0,1,1.14-3,5.66,5.66,0,0,1,2.8.66,15.31,15.31,0,0,1,2.15,1.5,20.76,20.76,0,0,0,2.11,1.55,5.6,5.6,0,0,0,2.75.79c.86,1.13,1.65,2.21,2.39,3.26a9,9,0,0,1,1.47,3.63,8.07,8.07,0,0,0-.83,2.11c-.18.76-.38,1.51-.6,2.27a9.26,9.26,0,0,1-.87,2.12,5.34,5.34,0,0,1-1.56,1.74,42.13,42.13,0,0,1-.82,5.23c-.37,1.63-.7,3.23-1,4.79S227.2,70.27,227,72a30.6,30.6,0,0,0-.28,5.44c-.55,1.84-1.16,3.72-1.83,5.66a36,36,0,0,0-1.47,5.35,11.5,11.5,0,0,0-2.75,3.69c-.67,1.42-1.38,2.84-2.11,4.27-.31.27-.49.34-.55.19s-.34-.22-.83-.23c.06.54,0,.91-.32,1.09s-.26.62.05,1.32a11.41,11.41,0,0,0-2.75,2.22,24.47,24.47,0,0,1-2.61,2.47,8.7,8.7,0,0,1-3.31,1.67,9.54,9.54,0,0,1-4.9-.29A38.22,38.22,0,0,1,195.23,98a29.66,29.66,0,0,1-5.68-9.66,2.52,2.52,0,0,0-1.38,1.31,18.61,18.61,0,0,0-.82,2c-.25.7-.5,1.33-.74,1.9a1.31,1.31,0,0,1-1.1.92,4.31,4.31,0,0,1-.69,1.57c-.33.49-.65,1-1,1.46a5.81,5.81,0,0,0-.69,1.57A2.62,2.62,0,0,0,183.4,100.84Z"/><path class="cls-1" d="M233.1,52.72a5.3,5.3,0,0,0-.32-1.29c-.16-.38-.32-.8-.51-1.27a19.66,19.66,0,0,1-.82-2.29,10.36,10.36,0,0,1-.37-3,4.3,4.3,0,0,1,.46-1.38,4.87,4.87,0,0,1,.55-.75c.12-.57.24-1.13.37-1.7l1.37-.16a11.17,11.17,0,0,0,1.51-.08l1.52-.18c2.32-.28,4.7-.65,7.15-1.14s5-1,7.52-1.57c2.81-.72,5.83-1.38,9.08-2,.3-.71.5-1.16.59-1.36l.32-.68,1-.68a4.58,4.58,0,0,1,2.93.12,5.7,5.7,0,0,1,1.29,1q2.38-.51,4.86-1.15c1.65-.44,3.36-.89,5.13-1.38l7.43-1.93a64.4,64.4,0,0,1,7.34-1.47c1-.15,2-.25,2.93-.32s1.8-.1,2.66-.1c.36.23.73.45,1.1.67a4.62,4.62,0,0,0,.91,1.07,10.75,10.75,0,0,0,1.29.92A14.09,14.09,0,0,1,303.1,33c.89,1,1.21,2.55,1,4.73-.16.32-.31.65-.46,1a7.07,7.07,0,0,1-.92.86l-.92,1.32-1,.15a5.06,5.06,0,0,0-1.37.33,9.88,9.88,0,0,0-1.1.57,5.83,5.83,0,0,1-.83.43c-.3.14-.64.29-1,.47q-1,0-1.56.12l-1.29.18a57.69,57.69,0,0,0-6,1.2c-2.14.54-4.21,1.1-6.23,1.68L277.2,47.1l-3.67.9q-.91,2.51-1.65,4.44c-.49,1.29-1,2.58-1.56,3.88s-1.07,2.6-1.55,3.92-.95,2.77-1.38,4.35a31.31,31.31,0,0,0-1.83,3.4,19.24,19.24,0,0,0-1.2,3.6,11.43,11.43,0,0,0-2,3.65c-.39,1.27-.75,2.36-1.05,3.25-.12.48-.25,1-.37,1.43a4,4,0,0,0-.78,1.1,3.58,3.58,0,0,1-.5.89A17.4,17.4,0,0,1,259,84.3c-.13.32-.25.66-.37,1a1.24,1.24,0,0,0-.09.79,5,5,0,0,1-.55,1.63,6.94,6.94,0,0,1-.1,1.11L257.67,90c-.12.44-.21.84-.27,1.18a1.53,1.53,0,0,0,.09.95l.55.66a3,3,0,0,1,.46.86.94.94,0,0,0,.46.22,1,1,0,0,1,.45.21,2.41,2.41,0,0,0,1.38.56c.3.33.61.65.92,1a6.56,6.56,0,0,1-1,5.27c-1.1,1.54-2.94,2.48-5.5,2.81l-1.29.07a4.11,4.11,0,0,1-.73-.73q-.83-.27-1.38-.42a2.11,2.11,0,0,1-1-.75.69.69,0,0,0-.45-.17.76.76,0,0,1-.46-.17,5,5,0,0,1-1.47-.46l-1-.43q.09-.93.09-1.29a7,7,0,0,1-1.14-2.06,17.88,17.88,0,0,1-.69-2.39l-.5-1.78a4.26,4.26,0,0,0-.69-1.38,34.16,34.16,0,0,1,1.19-10.92c.92-3,1.92-6,3-8.85q.92-2.32,1.74-4.71t1.46-4.86l1-1.14a6.78,6.78,0,0,1,.83-.74,6.59,6.59,0,0,1,.46-2.4c.3-.8.64-1.62,1-2.47.24-.51.47-1,.68-1.55a6.45,6.45,0,0,0,.42-1.34c-.43.06-.82.12-1.15.2s-.69.16-1.06.27a10.75,10.75,0,0,1-2.29.56,5.41,5.41,0,0,1-1.19.06,4.22,4.22,0,0,1-1.37.58c-.43.09-.86.15-1.29.21l-1.1.13-1.1.14a4.82,4.82,0,0,0-1.74.49l-1.65.2-.83.1-1.1.13-1.1.13a10.76,10.76,0,0,1-1.65.06,5.26,5.26,0,0,1-1.92-.46l-.64-.66c-.37-.63-.71-.95-1-1l-1-.16Z"/><path class="cls-1" d="M281.05,89.62l1.19-1.08c0-.64.07-1.29.1-1.94q2.28-5.89,4.72-11.37T292.15,64c.55-1.24,1.11-2.48,1.69-3.72s1.15-2.52,1.7-3.82a3,3,0,0,1-.09-.76,3.36,3.36,0,0,1,.18-1,37.74,37.74,0,0,0,2.06-3.59c.52-1.05,1-2.13,1.52-3.24.55-1.3,1.14-2.61,1.79-3.92A24.77,24.77,0,0,1,303.42,40l.65-1,1,0a6.36,6.36,0,0,1,.77-.43,3.75,3.75,0,0,1,1.06-.29l1.65,0a19.76,19.76,0,0,0,5.36-4.76,64.37,64.37,0,0,0,4.73-7l1.1-1.72,1.46.71a5.7,5.7,0,0,0,1.47.34c.67.08,1.37.19,2.11.33,1.28.12,2.53.29,3.76.51a6,6,0,0,1,2.84,1.19l.46.76c.12.66.23,1.25.32,1.79s.2,1.07.32,1.6c.24,1.25.46,2.49.64,3.71a36.64,36.64,0,0,1,.37,4.12c.3,1.18.59,2.38.87,3.59s.53,2.41.78,3.6c.3,1.73.64,3.37,1,4.94a23.64,23.64,0,0,0,1.47,4.42,3.65,3.65,0,0,1,1.1-.07,9.08,9.08,0,0,1,2.56-.93l1.19-.26c.13.35.25.7.37,1a3,3,0,0,0,.46.49,5.91,5.91,0,0,0,.64.46,3.72,3.72,0,0,1,2.16.28,7.71,7.71,0,0,1,1.14.79,5.43,5.43,0,0,0,.46.35,2.44,2.44,0,0,0,.46.25l1.65.4-.92,1.88a16.66,16.66,0,0,1-3.07,4.21A23.45,23.45,0,0,1,341.2,69a5.85,5.85,0,0,1,.23,1.15,7.92,7.92,0,0,0,.23,1.26c.24,1.18.44,2.42.6,3.71a17,17,0,0,1-.05,4.09,25.85,25.85,0,0,1-2.16,4.58,21.43,21.43,0,0,1-2.93,3.82,18.89,18.89,0,0,1-3.8,3,13,13,0,0,1-4.41,1.69A5.47,5.47,0,0,1,327,92a8,8,0,0,1-1.06-.58,5.19,5.19,0,0,0-1.19-.56l-1.19-.38.36-1.42a1.41,1.41,0,0,0,0-1.28,5.84,5.84,0,0,0-1.33-1.27A3,3,0,0,1,322,86c-.19-.19-.4-.38-.65-.59l-1.83-1.85,3-1.26a8.4,8.4,0,0,0,3.66-2.41,6.57,6.57,0,0,0,.74-4.19,9.79,9.79,0,0,0-3.76.41l-2.94,1.11c-1.4.57-2.78,1.09-4.12,1.56a23.62,23.62,0,0,1-4.4,1,21.87,21.87,0,0,1-3.3.19l-1,0c-.09-.32-.19-.64-.28-1a.5.5,0,0,0-.23-.38l-.41-.36c-.31-.32-.67-.76-1.1-1.31a2.48,2.48,0,0,1-.27-2.25,4,4,0,0,1-.74-2,13.34,13.34,0,0,0-.59,1.51c-.16.48-.29.94-.42,1.39L303,76.94l-1.2.35a2.07,2.07,0,0,0-.32.6.75.75,0,0,0,0,.56l.36,1-.91,1a2.29,2.29,0,0,1-.46.52,3.92,3.92,0,0,0-.46.43,14.26,14.26,0,0,1-.5,2c-.22.64-.45,1.29-.69,1.93-.31,1-.6,2-.87,3a9.66,9.66,0,0,0-.41,2.81c-.13.42-.25.83-.37,1.25A3.79,3.79,0,0,1,296,93.52c-.46.31-.9.58-1.33.83a4.65,4.65,0,0,0-1.28.91c-.09.41-.18.82-.28,1.23l-1.37.38-1.7.6a6.66,6.66,0,0,1-1.14.25l-1.2.07c-.73-.63-1.32-1.11-1.78-1.45a6.59,6.59,0,0,0-1.61-.83l-.55-.66a4.1,4.1,0,0,1-.46-1.27,10.13,10.13,0,0,0-.27-1.2,3.24,3.24,0,0,0-.55-1.57ZM310.3,61.68q-1.29,2-2.47,4.21a10.14,10.14,0,0,1,1.23-.27,10.28,10.28,0,0,0,1.24-.27c2.14-.43,4.13-.86,6-1.31s3.82-1,6-1.78q-.74-3.28-1.6-6.69t-1.88-6.83c-.16.32-.31.65-.46,1q-2.29,2.81-4.4,6a54.11,54.11,0,0,0-3.49,5.91Z"/><path class="cls-1" d="M351.93,80.31c-.31.11-.58-.08-.83-.57a13,13,0,0,0-.82-1.39l1-.15a7.17,7.17,0,0,1-.32-3.66c.21-1.17.47-2.3.78-3.42s.56-2.19.77-3.23a5.19,5.19,0,0,0-.32-3.12q.46.21.69-.33a6,6,0,0,0,.37-1.33,7.63,7.63,0,0,0,.09-1.67,12.86,12.86,0,0,0-.14-1.4,39.84,39.84,0,0,0,1.88-6.14q.69-3.12,1.24-6.18t1.24-6a35,35,0,0,1,1.79-5.53,5.46,5.46,0,0,1,2.7-.07,2.92,2.92,0,0,1,1.88,1,30.63,30.63,0,0,0,5-6q2.2-3.43,4.45-6.74a36.71,36.71,0,0,1,5.09-6,15.54,15.54,0,0,1,7.06-3.76c1.47.83,3.12,1.72,4.95,2.65A12.44,12.44,0,0,1,395,21.05c.49.24,1,.49,1.42.76s.94.53,1.43.77V24a9,9,0,0,1,2.15,2.5,24.71,24.71,0,0,1,1.56,3.18c.46,1.13.9,2.28,1.33,3.44a21.36,21.36,0,0,0,1.47,3.19,2.31,2.31,0,0,0-.14,1,3.7,3.7,0,0,0,.18.8,6.39,6.39,0,0,1,.23.89,7,7,0,0,1,.09,1.22,14.23,14.23,0,0,1-3.16,8.28,27.38,27.38,0,0,1-6.79,5.8,70.53,70.53,0,0,1-8.48,4.4q-4.49,2-8.16,4c0,.25.14.35.41.31s.36.14.23.52q2.76,1.26,4.27,2a26.45,26.45,0,0,0,2.84,1.3,14.6,14.6,0,0,0,2.93.73c1.07.15,2.56.31,4.45.47s3.38.31,4.45.44,2,.21,2.89.24,1.77,0,2.75,0l3.94-.08A6.89,6.89,0,0,1,409,70.85a10.92,10.92,0,0,1,.92,2.62,8.21,8.21,0,0,1,.13,2.6,3.92,3.92,0,0,1-.78,2.07c.06.24.23.33.51.26a2.75,2.75,0,0,1,.87-.07,5.63,5.63,0,0,0-1.1,1.24L408.59,81a8.84,8.84,0,0,1-1,1.34,2.93,2.93,0,0,1-1.51.84,15,15,0,0,1-8.44,1.26A99.86,99.86,0,0,1,384.48,82q-3.94-.92-6.42-1.75a38.22,38.22,0,0,1-4.31-1.72,23.4,23.4,0,0,1-3.39-2q-1.56-1.1-3.58-2.64a.52.52,0,0,0-.32.41.52.52,0,0,1-.32.41,25.74,25.74,0,0,1-1.42,6.17,25.76,25.76,0,0,1-2.8,5.08,2.31,2.31,0,0,0-2,.56,7.07,7.07,0,0,1-1.24,1.19,2.21,2.21,0,0,1-1.37.15,4.53,4.53,0,0,1-.83-.38,7.78,7.78,0,0,0-.82-.43,2.44,2.44,0,0,0-1.47,0c-.18-.53-.36-1-.55-1.53s-.67-.65-1.47-.47a3.2,3.2,0,0,0,.19-1.45,5.29,5.29,0,0,0-.28-1.06,9.2,9.2,0,0,1-.32-1A2.21,2.21,0,0,1,351.93,80.31ZM382.55,34a24.07,24.07,0,0,1-2.66,3.54c-1,1.09-1.94,2.21-2.88,3.35a25.07,25.07,0,0,0-2.53,3.66A14.09,14.09,0,0,0,372.93,49,36.65,36.65,0,0,0,381,45.72c2.82-1.53,5.47-3,8-4.38a8.24,8.24,0,0,0-2.38-5.12A8.44,8.44,0,0,0,382.55,34Z"/><path class="cls-1" d="M408.78,81.23a5.23,5.23,0,0,1-2.07-1.83,12.09,12.09,0,0,1-1.28-2.57,21.71,21.71,0,0,1-.83-3c-.21-1-.44-2-.68-3a3,3,0,0,1,.55-2,14.52,14.52,0,0,1,1.19-1.31,37,37,0,0,0,3.94-.9l3.39-1c1.1-.33,2.2-.65,3.3-1a29.12,29.12,0,0,1,3.58-.7c.92-2,1.77-3.95,2.57-5.79s1.56-3.61,2.29-5.3a28.46,28.46,0,0,1,1.42-4.44c.58-1.39,1.15-2.72,1.7-4s1-2.52,1.46-3.77a16.29,16.29,0,0,0,.83-3.91q1.1-3.35,2-6.16a38.54,38.54,0,0,0,1.33-6.63c-2.32.66-4.19,1.25-5.59,1.76a17.08,17.08,0,0,0-3,1.36,5.77,5.77,0,0,1-2.89-.36,4.54,4.54,0,0,1-1.69-1.34,8,8,0,0,1-1.1-2c-.31-.75-.68-1.53-1.1-2.33a5.13,5.13,0,0,0,.18-2.46,2.87,2.87,0,0,0-1.1-2.19,2,2,0,0,0,1.1-1.38,2.21,2.21,0,0,0,.09-1.62,18.39,18.39,0,0,1,3.3-1l3.44-.72c1.13-.24,2.22-.5,3.26-.79A7.43,7.43,0,0,0,431,9.73c3.17-.53,6.49-1.06,9.94-1.61s6.65-1.08,9.58-1.61a11.88,11.88,0,0,0,3.81.1,32.67,32.67,0,0,1,4.31-.22,10.16,10.16,0,0,1,3.85.76,4.24,4.24,0,0,1,2.34,2.95,3.75,3.75,0,0,1,2.06.51,2,2,0,0,1,.87,1.23,6.26,6.26,0,0,1,.14,1.73c0,.64-.05,1.27-.05,1.88a13.79,13.79,0,0,1-3.71,2.2,40.72,40.72,0,0,1-4.9,1.65c-1.78.47-3.63.87-5.55,1.18s-3.81.62-5.64.9a65.31,65.31,0,0,1-1.61,7.3q-1.14,4.21-2.33,8.25T442,44.16a15.41,15.41,0,0,0-.78,4.08c-.61,1.48-1.11,2.73-1.51,3.76s-.76,2-1.1,2.89-.67,1.78-1,2.64-.75,1.86-1.24,2.95l6.24-.76a1.6,1.6,0,0,0,.82,1.27,9.33,9.33,0,0,0,1.38.48,5.42,5.42,0,0,1,1.33.52,1.33,1.33,0,0,1,.6,1.26,2.8,2.8,0,0,1,2.2,1.11,2.86,2.86,0,0,1,.23,2,7.92,7.92,0,0,1-.92,2.26c-.46.79-.9,1.48-1.33,2.08a2,2,0,0,0-1.56.61A13.09,13.09,0,0,0,444,72.75a21.74,21.74,0,0,0-5.22.55q-2.56.6-4.77,1c-.31.1-.43.29-.37.55a.57.57,0,0,1-.18.62,15.4,15.4,0,0,0-5.82,0,40.5,40.5,0,0,0-6.05,1.66c-2.05.73-4.15,1.49-6.28,2.3A34.44,34.44,0,0,1,408.78,81.23Z"/><path class="cls-1" d="M475.89,72.36a18.26,18.26,0,0,1-7.33.41,16.12,16.12,0,0,1-5.92-2.19,17,17,0,0,1-4.49-4.08,23.31,23.31,0,0,1-3.07-5.33,30.39,30.39,0,0,1,.46-11.38A41.15,41.15,0,0,1,459.3,40a64.09,64.09,0,0,1,5.64-8.7q3.15-4.1,6.09-7.9a1.1,1.1,0,0,0,1.06-.11,3.39,3.39,0,0,0,.73-.81,12,12,0,0,1,.73-1,2.65,2.65,0,0,1,1-.74,4.57,4.57,0,0,1,1-1.47A16.22,16.22,0,0,1,476.76,18a16.38,16.38,0,0,0,1.29-1.19,6.21,6.21,0,0,0,1.05-1.48,5,5,0,0,0,1.61-.8A12.56,12.56,0,0,0,482,13.43a14.54,14.54,0,0,1,1.24-1.13,5.8,5.8,0,0,1,1.56-.89V10.22a9.42,9.42,0,0,0,2.93-2.3c.61-.79,1.34-1.81,2.2-3,.67-.12,1.21-.2,1.61-.24a16.62,16.62,0,0,0,1.87-.36A11.26,11.26,0,0,1,495,1.84,16.62,16.62,0,0,1,497.07,0,7.14,7.14,0,0,0,500,.61a4.18,4.18,0,0,1,2.84,1.18,2.5,2.5,0,0,0,.64,1.64,8.83,8.83,0,0,0,1.19,1c.43.3.86.61,1.29.94a2.38,2.38,0,0,1,.82,1.5c.31,0,.51-.1.6-.24s.29-.17.59-.14a11.1,11.1,0,0,0,.37,1.17,4.87,4.87,0,0,0,.41.79,7.9,7.9,0,0,1,.46.79,5.86,5.86,0,0,1,.41,1.07,24.07,24.07,0,0,0-.82,2.4,2.78,2.78,0,0,1-1.47,1.81c0,.49.19.74.55.74s.58.21.64.63a2.13,2.13,0,0,1-.27,1.4A77.93,77.93,0,0,1,512.93,26a71,71,0,0,0,4.77,8.67,6.44,6.44,0,0,0,.14,2.52,15.49,15.49,0,0,0,.83,2.37q.5,1.15,1,2.31a11.33,11.33,0,0,1,.64,2.34,15.61,15.61,0,0,1,0,3.35,17,17,0,0,1-.73,3.49,15,15,0,0,1-1.47,3.17A7.43,7.43,0,0,1,516,56.5a12.68,12.68,0,0,1-3.67,3.26,24.08,24.08,0,0,0-4,3,10.92,10.92,0,0,1-2.75,1.28c-1,.29-2,.61-3,.94a23,23,0,0,1-2.84,1.66c-1.1.56-2.23,1.07-3.39,1.54a32.69,32.69,0,0,1-3.49,1.19,10.16,10.16,0,0,1-3.11.42,37,37,0,0,1-6.42,2.27A21,21,0,0,1,475.89,72.36Zm1.19-33.49a22.91,22.91,0,0,1-2.15,4c-.82,1.22-1.64,2.45-2.43,3.7a25.3,25.3,0,0,0-2.06,3.93,13,13,0,0,0-1,4.73,7.43,7.43,0,0,0,4.36,1.42,25,25,0,0,0,5.18-.44q2.65-.49,5.32-1.22a29.54,29.54,0,0,1,4.77-.92c0-.55.24-.84.73-.89A20.4,20.4,0,0,0,497,50.39q3.3-2.09,6.88-4.21a7.43,7.43,0,0,1,1.19-2,4.16,4.16,0,0,0,.83-2.45,5.21,5.21,0,0,1-.6-1.33,7.18,7.18,0,0,1-.14-1.63A36.85,36.85,0,0,1,501,31.88a46,46,0,0,0-4-7,2.86,2.86,0,0,1-.73,1,.79.79,0,0,1-1.19-.08,2.26,2.26,0,0,1-.83,1.31,2.57,2.57,0,0,1-1.24.44,3.57,3.57,0,0,1-1.37-.15,4.12,4.12,0,0,1-1.24-.62c-2.14,1.91-4.27,3.77-6.37,5.56a37,37,0,0,0-5.73,6.17c-.31.21-.49.29-.55.24S477.45,38.71,477.08,38.87Z"/><path class="cls-1" d="M168.7,145.11c.19-.93.31-1.68.37-2.27a2.58,2.58,0,0,0-.64-1.83c.24-1,.44-1.78.59-2.34a6,6,0,0,0,0-2.29,11.19,11.19,0,0,1,2.52-4.22,20.45,20.45,0,0,1,3.71-3.08,29.5,29.5,0,0,1,4.22-2.26c1.47-.64,2.84-1.19,4.13-1.67a.3.3,0,0,0-.37-.34c-.24,0-.31-.12-.18-.44a69.76,69.76,0,0,0,10-3.53q5-2.19,10.22-4.08A59.81,59.81,0,0,1,214,114a34.31,34.31,0,0,1,11.55.16,8.17,8.17,0,0,0,1,2c.42.62.87,1.23,1.33,1.82s.87,1.17,1.24,1.74a4.1,4.1,0,0,1,.64,1.85,8.39,8.39,0,0,1,1.79,1.95,4,4,0,0,1,.22,3q-1,.85-2.1,1.71c-.74.58-1.5,1.12-2.3,1.64a27.19,27.19,0,0,0-8.25.18c-2.75.48-5.22,1-7.43,1.43a2.73,2.73,0,0,0-2.38-.81,14.19,14.19,0,0,0-2.89.75l-3,1.13a6.85,6.85,0,0,1-2.75.49,5.9,5.9,0,0,1-2.66,1.49c-1.1.32-2.26.6-3.48.83-.06.32,0,.52.18.63s.22.35.09.72a3,3,0,0,0,1.75,1c.73.14,1.48.27,2.24.38a8,8,0,0,1,2.07.58,2.14,2.14,0,0,1,1.19,1.49,5.37,5.37,0,0,1,2.84.59,7,7,0,0,1,2,1.68,6.65,6.65,0,0,1,1.19,2.22,5.92,5.92,0,0,1,.27,2.22c.25.58.51.8.78.65s.6,0,1,.36a6.34,6.34,0,0,0,1.69,2.71,10.38,10.38,0,0,1,2.07,3c.12,1.82.22,3.46.32,4.92a9.76,9.76,0,0,1-.78,4.39,26.07,26.07,0,0,1-4.5,7.71,39.68,39.68,0,0,1-6.64,6.3,57.62,57.62,0,0,1-7.84,5,74.84,74.84,0,0,1-8.16,3.7,2.09,2.09,0,0,0-.87.08c-.34.09-.42-.09-.23-.53a4.19,4.19,0,0,1-1.88,1.07,11.58,11.58,0,0,1-2.3.33c-.82,0-1.65.06-2.47.06a10.91,10.91,0,0,0-2.43.29,17,17,0,0,1-1.33-1.37,5.17,5.17,0,0,1-1-1.66q-.47-.06-.42-.57c0-.34-.1-.5-.41-.47a1.36,1.36,0,0,1,.09-.56l.19-.38c.24-.2.35-.35.32-.44a.54.54,0,0,0-.28-.25,4.92,4.92,0,0,1-.46-.29.36.36,0,0,1-.13-.45,3.33,3.33,0,0,0,.32-2c-.09-.76-.17-1.53-.23-2.32a7,7,0,0,1,.18-2.26,3.32,3.32,0,0,1,1.56-1.91,23,23,0,0,0,7.11-.93,37.13,37.13,0,0,0,6.32-2.56c2-1,3.88-2.13,5.69-3.3s3.56-2.27,5.27-3.29a4.24,4.24,0,0,1,.87-1.64c.4-.47.81-.92,1.24-1.36a14.42,14.42,0,0,0,1.19-1.4,5.23,5.23,0,0,0,.83-1.78.84.84,0,0,0,0-.55,1,1,0,0,0-.28-.29,4.22,4.22,0,0,1-.37-.29.68.68,0,0,1-.18-.53l-.5-.13a.91.91,0,0,0-.42,0,30.78,30.78,0,0,0-5-1.54,22.48,22.48,0,0,1-4.49-1.42,2.56,2.56,0,0,1-2.2.56c-.74-.18-1.62-.34-2.66-.5a62.27,62.27,0,0,1-7.29-.12,25.85,25.85,0,0,1-6.65-1.41,3.51,3.51,0,0,0-.46-.93c-.18-.26-.61-.3-1.28-.13a17.91,17.91,0,0,0-1.33-1.6A8.56,8.56,0,0,1,168.7,145.11Z"/><path class="cls-1" d="M228.21,135.47a2.75,2.75,0,0,0-.46-1.41,20.71,20.71,0,0,0,1-3.37c.22-1.09.38-2.13.51-3.13s.26-1.68.41-2.43a15.94,15.94,0,0,1,.6-2.18,4.71,4.71,0,0,0,2.33-1.6,18.64,18.64,0,0,0,1.24-1.84q1.65-.29,2.16.21a7.4,7.4,0,0,1,1.14,1.7,11.16,11.16,0,0,0,1.29,2,4.47,4.47,0,0,0,2.47,1.49,18.22,18.22,0,0,0,.64,1.85c.25.58.52,1.19.83,1.83.55,1.21,1.07,2.48,1.56,3.8a12.62,12.62,0,0,1,.82,3.79,21.56,21.56,0,0,0-1.69,5.07,35.17,35.17,0,0,0-.74,5.63,34.76,34.76,0,0,0,.14,5.35,16.67,16.67,0,0,0,.92,4.2c.18.47.36.93.55,1.4l2-.43a54,54,0,0,0,6-2.62,34.25,34.25,0,0,0,5-3.15,43.23,43.23,0,0,0,4.4-3.91q2.1-2.16,4.4-5a38.79,38.79,0,0,0,3.94-6.34,48.4,48.4,0,0,0,2.89-7.13,59.27,59.27,0,0,0,1.79-7.21,57.9,57.9,0,0,0,.82-6.62,3.73,3.73,0,0,0,1.93-2.92c-.09-.38-.19-.77-.28-1.15a1.28,1.28,0,0,1-.23-.84,2.58,2.58,0,0,1,.23-.81,6.35,6.35,0,0,1,3.12-3.54,22.29,22.29,0,0,1,3.07,2c1,.73,1.82,1.47,2.61,2.21a18.52,18.52,0,0,0,.74,4.17c.36,1.14.76,2.23,1.19,3.27s.81,1.94,1.15,2.87a14.19,14.19,0,0,1,.68,3.48,39.42,39.42,0,0,0-1.33,5.36c-.27,1.66-.53,3.39-.77,5.2-.07.34-.13.69-.19,1q-1.65,3.08-3.25,6.27c-1.07,2.14-1.94,4-2.62,5.54a7.94,7.94,0,0,0-1,1.41c-.27.53-.54,1.06-.78,1.58-.12.2-.29.53-.5,1a4.71,4.71,0,0,1-.6,1l-2.2-.53c-.18,1-.37,1.95-.55,2.92l-1.47.56c-.36.48-.73,1-1.1,1.43a38.59,38.59,0,0,1-4.44,6.74,36.52,36.52,0,0,1-5.23,5.09,60.07,60.07,0,0,1-6.51,4.46q-3.61,2.16-8.3,4.66a28.18,28.18,0,0,0-3.16.07q-1.34.12-2.61.18c-.86.11-1.69.18-2.48.21s-1.71.05-2.75.05a2.12,2.12,0,0,0-1-1.07,2.2,2.2,0,0,0-1.19-.22,5.28,5.28,0,0,1-2.75-2.25c-.61-1-1.25-2.18-1.93-3.45-.3-.69-.63-1.39-1-2.09a10.61,10.61,0,0,0-1.24-2l1.84-.76c-.8-.83-1.59-1.66-2.39-2.48a5.6,5.6,0,0,0-.59-.48,3,3,0,0,1-.6-.58v-1.74c-.25-5-.35-9.6-.32-13.86A37.24,37.24,0,0,1,228,136Z"/><path class="cls-1" d="M295.14,173.52a21.69,21.69,0,0,1-2.84.13,11.94,11.94,0,0,1-2.61-3.9,24.92,24.92,0,0,1-1.74-5.54,28.58,28.58,0,0,1-.56-6.07,15.68,15.68,0,0,1,1.06-5.6c0-.06.29-.83.87-2.32s1.33-3.38,2.25-5.67,1.95-4.86,3.11-7.68,2.33-5.6,3.49-8.33,2.28-5.23,3.34-7.49a54.9,54.9,0,0,1,2.8-5.3c.55-.93,1.06-1.83,1.51-2.69s.91-1.66,1.33-2.39l1.88-3.34a21.1,21.1,0,0,1,1.93-2.84,15.35,15.35,0,0,1,5.46-4.32,11.81,11.81,0,0,1,1.92.69,5.17,5.17,0,0,1,1.47,1l.27,1.25a1.09,1.09,0,0,0,.6.78,1.25,1.25,0,0,0,.69.13,16,16,0,0,1,2.06.3,6.75,6.75,0,0,0,1.88.14c.24.33.47.66.69,1a6.53,6.53,0,0,0,.68.91,31.64,31.64,0,0,1,3,4.69,6.44,6.44,0,0,1,0,5.41l.09,1a1.79,1.79,0,0,1,.46,1.12,10,10,0,0,1-.18,1.59c-.07.5-.11,1-.14,1.62a5.53,5.53,0,0,0,.23,1.85l.64.64a5.89,5.89,0,0,0,2.84.32,7.45,7.45,0,0,0,3.3-1.31c1-.69,1.9-1.37,2.75-2a21.22,21.22,0,0,1,1.88-1.46,8,8,0,0,1,1.7-.89q1.92-2.11,3.53-3.77c1.07-1.1,2.18-2.23,3.35-3.38q3.3-3.13,6.41-6.66a26.88,26.88,0,0,0,5-8.38,4.74,4.74,0,0,1,2.29-1,6.77,6.77,0,0,1,2.57.13,25,25,0,0,1,2.56.78,2.81,2.81,0,0,0,.51.2,2.74,2.74,0,0,1,.5.2,2.18,2.18,0,0,0,.83,1.72,3.32,3.32,0,0,0,.64.36l.37.13c.48.24.9.46,1.23.65a1.92,1.92,0,0,1,.78.9,6.13,6.13,0,0,0,2.75,3.45,4.28,4.28,0,0,0,.09,2,16.47,16.47,0,0,0,.65,1.79,3.46,3.46,0,0,1,.27.65,6.15,6.15,0,0,0,.28.74l-2,.1.27,2a8.35,8.35,0,0,1-.22,3.52,14.39,14.39,0,0,1-1.15,3.19c.12,1.82.18,3.26.18,4.33a23.49,23.49,0,0,1-.18,3,14.72,14.72,0,0,1-.6,2.7,26.42,26.42,0,0,1-1.05,2.77,35.47,35.47,0,0,1-1.61,13q-2,6.06-4.26,11.44c-.18.45-.37.88-.55,1.27a12.13,12.13,0,0,0-.46,1.16,17.34,17.34,0,0,0-1.83.91,17.69,17.69,0,0,0-1.56,1.05,14.81,14.81,0,0,1-2,1.35,6.22,6.22,0,0,1-2.11.72q-4.4-2.56-4.54-10.44t3.35-20.56a1.6,1.6,0,0,0,.55-1.46v-1l-.91,0a3.71,3.71,0,0,0-.83.22c-.24.09-.43.39-.55.9q-2.94,2.53-6.37,5.28T342.27,140a59.75,59.75,0,0,1-7.47,4.2,25.89,25.89,0,0,1-7.38,2.31q-9.18,1.33-13.85-7.35l-.82-1.53-.92,1.6q-.27.5-1,1.92t-1.38,3.27c-.46,1.23-.85,2.48-1.19,3.75a8.44,8.44,0,0,0-.32,3.25,30.71,30.71,0,0,0-2.16,2.6,9.55,9.55,0,0,0-1.51,3.15,1.57,1.57,0,0,0-.09.89,4.51,4.51,0,0,0,.28.83,2,2,0,0,1-.37,1,7.72,7.72,0,0,1-.64.64c-.31.35-.61.71-.92,1.09a8.08,8.08,0,0,0-.83,1.26,7.9,7.9,0,0,0-.27,1.19q-.09.62-.18,1.08a2.57,2.57,0,0,1-.28,1.41c-.61,1.37-1.15,2.5-1.6,3.39a11,11,0,0,1-1.33,2.07,4.22,4.22,0,0,1-1.33,1.06A5.34,5.34,0,0,1,295.14,173.52Z"/><path class="cls-1" d="M386.56,160.35a21.69,21.69,0,0,1-2.84.13,11.94,11.94,0,0,1-2.62-3.89,26.09,26.09,0,0,1-1.74-5.53,28.58,28.58,0,0,1-.55-6.07,15.63,15.63,0,0,1,1.05-5.6c0-.06.29-.84.87-2.33s1.33-3.38,2.25-5.68,2-4.86,3.12-7.68,2.32-5.6,3.48-8.34,2.28-5.22,3.35-7.48a53.88,53.88,0,0,1,2.8-5.3c.55-.93,1-1.82,1.51-2.68s.9-1.65,1.33-2.39l1.88-3.33a20.64,20.64,0,0,1,1.92-2.83A16.69,16.69,0,0,1,404.71,89a16.36,16.36,0,0,1,3.12-1.93,11.78,11.78,0,0,1,1.92.7,5.23,5.23,0,0,1,1.47,1c.09.41.18.83.28,1.24a1.15,1.15,0,0,0,.59.8,1.38,1.38,0,0,0,.69.13,17.67,17.67,0,0,1,2.06.32,6.73,6.73,0,0,0,1.88.16c.25.34.48.67.69,1a6,6,0,0,0,.69.92,31.88,31.88,0,0,1,3,4.74,6.37,6.37,0,0,1,0,5.41c0,.33.07.66.1,1a1.88,1.88,0,0,1,.45,1.13,10,10,0,0,1-.18,1.59c-.06.5-.11,1-.14,1.62a5.79,5.79,0,0,0,.23,1.85l.64.65a6,6,0,0,0,2.85.36,7.37,7.37,0,0,0,3.3-1.25c1-.67,1.89-1.34,2.75-2a17.72,17.72,0,0,1,1.88-1.43,8.18,8.18,0,0,1,1.69-.86c1.29-1.38,2.46-2.61,3.53-3.69s2.19-2.18,3.35-3.3q3.3-3.06,6.42-6.51a25.86,25.86,0,0,0,4.95-8.24,4.61,4.61,0,0,1,2.29-.91,6.6,6.6,0,0,1,2.57.21c.85.24,1.71.53,2.57.86a2.24,2.24,0,0,0,.5.21,3.41,3.41,0,0,1,.51.22,2.22,2.22,0,0,0,.82,1.74,3.8,3.8,0,0,0,.64.39l.37.14c.49.26.9.49,1.24.69a2.15,2.15,0,0,1,.78.92A6.44,6.44,0,0,0,468,92.49a4.16,4.16,0,0,0,.09,2,18.47,18.47,0,0,0,.64,1.81,4.48,4.48,0,0,1,.28.66q.09.3.27.75l-2,0,.28,2a8.48,8.48,0,0,1-.23,3.51,13.79,13.79,0,0,1-1.15,3.15c.12,1.82.19,3.26.19,4.33a21.74,21.74,0,0,1-.19,3,15.36,15.36,0,0,1-.59,2.68,27.57,27.57,0,0,1-1.06,2.73,35.06,35.06,0,0,1-1.6,12.92q-2,6-4.26,11.3c-.19.45-.37.87-.56,1.26a9.11,9.11,0,0,0-.45,1.15,13.71,13.71,0,0,0-1.84.85,13.89,13.89,0,0,0-1.56,1,16.15,16.15,0,0,1-2,1.29,6.24,6.24,0,0,1-2.11.66q-4.41-2.68-4.54-10.56t3.35-20.48a1.56,1.56,0,0,0,.55-1.44v-1l-.92,0a3.89,3.89,0,0,0-.83.19c-.24.09-.42.39-.55.89-2,1.64-4.08,3.35-6.37,5.13s-4.66,3.45-7.1,5a60,60,0,0,1-7.48,4.07,25.72,25.72,0,0,1-7.38,2.2q-9.16,1.22-13.84-7.49l-.83-1.53-.92,1.59q-.27.5-1,1.92c-.46,1-.92,2-1.37,3.26s-.86,2.47-1.2,3.74a8.64,8.64,0,0,0-.32,3.25,28.69,28.69,0,0,0-2.15,2.59,9.17,9.17,0,0,0-1.51,3.15,1.46,1.46,0,0,0-.1.88,4.77,4.77,0,0,0,.28.83,1.78,1.78,0,0,1-.37,1,6.44,6.44,0,0,1-.64.64c-.31.35-.61.72-.92,1.09a8,8,0,0,0-.82,1.26,7.92,7.92,0,0,0-.28,1.19q-.09.62-.18,1.08a2.57,2.57,0,0,1-.28,1.41c-.61,1.37-1.14,2.5-1.6,3.39a10.48,10.48,0,0,1-1.33,2.07,4.22,4.22,0,0,1-1.33,1.06A5.57,5.57,0,0,1,386.56,160.35Z"/><path class="cls-1" d="M474.85,144.84a3.6,3.6,0,0,1-1.05-1.63,2.52,2.52,0,0,0-1.51-1.49c-.13-.9-.29-1.94-.51-3.11s-.43-2.37-.64-3.6-.37-2.47-.46-3.71a14.38,14.38,0,0,1,.14-3.45,5.85,5.85,0,0,1,.6-1.62c.27-.52.55-1,.82-1.51a7.12,7.12,0,0,0,.64-1.49,2.64,2.64,0,0,0,.05-1.47.94.94,0,0,0,.69-.67c.09-.35.38-.48.87-.41.42-1.39.88-2.69,1.37-3.91s1-2.39,1.56-3.55,1.12-2.33,1.7-3.52a33.61,33.61,0,0,0,1.6-4,8,8,0,0,1-2.25-2.94,18.91,18.91,0,0,1-1.05-3.33,33.18,33.18,0,0,1-.55-3.48,18.73,18.73,0,0,0-.73-3.54,11.22,11.22,0,0,1,2.66-3,18.15,18.15,0,0,1,3.43-2.09,28.76,28.76,0,0,1,4.08-1.5q2.2-.61,4.68-1.4c2.93-1.19,5.56-2.14,7.89-2.87s4.58-1.34,6.78-1.86,4.49-1,6.88-1.46,5.13-1.07,8.25-1.84a.3.3,0,0,0,.32.25l.6,0a.91.91,0,0,0,1,.57,2.6,2.6,0,0,0,0-.5,2.08,2.08,0,0,1,0-.41,2.27,2.27,0,0,1,.51.06l.55.15a.41.41,0,0,0,.41-.08q.18-.15.09-.6a8.92,8.92,0,0,0,2.84,3,19.83,19.83,0,0,0,3.86,1.91,5.73,5.73,0,0,1,0,1.19,4.82,4.82,0,0,1-.14.7,2.78,2.78,0,0,0-.09.74,4.6,4.6,0,0,0,.19,1.13,14.07,14.07,0,0,1-3.35,4.06,16.48,16.48,0,0,1-4,2.37,26.55,26.55,0,0,1-4.45,1.41c-1.55.36-3.15.73-4.76,1.13A41.22,41.22,0,0,0,509.42,95a22.07,22.07,0,0,0-4.86,2.6,3,3,0,0,0-1.33-.12,6.18,6.18,0,0,0-1.24.33c-.42.16-.9.32-1.42.49a4.81,4.81,0,0,1-1.88.16A4.91,4.91,0,0,1,497,99.52l-2,.73a4.18,4.18,0,0,1,.41,2,4.13,4.13,0,0,0,.23,1.72,49.08,49.08,0,0,0,8.52-.79q4.68-.8,9.17-1.32a.73.73,0,0,1-.09.65,1,1,0,0,0-.18.65,7.57,7.57,0,0,1,1.56,1.26c.49.51,1,1,1.51,1.49a7.68,7.68,0,0,0,1.6,1.17,3,3,0,0,0,1.93.27,6.8,6.8,0,0,1,.64,1.89,3.82,3.82,0,0,1-.27,2.12q-1.84,1.32-3.58,2.69a39,39,0,0,1-3.62,2.52,23.34,23.34,0,0,1-4.08,2,15.91,15.91,0,0,1-4.77.93l-.78.07a1.24,1.24,0,0,1-.78-.3,4.76,4.76,0,0,1-2.43.53,5.06,5.06,0,0,0-2.52.54,8.37,8.37,0,0,0-3-.19,8.61,8.61,0,0,1-3-.19c-1.1,1.69-2.14,3.46-3.12,5.29a45.76,45.76,0,0,0-2.56,5.79,34.91,34.91,0,0,0,6.23-.13c1.65-.21,3.21-.47,4.68-.79s3-.63,4.54-.94a39.19,39.19,0,0,1,5.73-.66,18.35,18.35,0,0,1,5.27-1.93,36.78,36.78,0,0,0,5.55-1.65,2.83,2.83,0,0,1,1.55.94c.43.49.84,1,1.24,1.47a7.64,7.64,0,0,0,1.24,1.24,1.81,1.81,0,0,0,1.65.26,2,2,0,0,1,.6,1.06q.14.63.27,1.17a2,2,0,0,0,.41.85c.19.2.52.25,1,.16a19.48,19.48,0,0,1-3.89,5.76,18,18,0,0,1-4.86,3.33,31,31,0,0,1-6.06,2q-3.34.77-7.47,1.84a3.47,3.47,0,0,1-1.69.1,4.54,4.54,0,0,0-1.43-.11c-1.71.46-3.74.94-6.09,1.46a49.33,49.33,0,0,1-7.11,1,32,32,0,0,1-6.88-.24A10.67,10.67,0,0,1,474.85,144.84Z"/><path class="cls-1" d="M530.23,135.43c-.3.08-.58-.13-.82-.64a14,14,0,0,0-.83-1.46l1-.06a7.48,7.48,0,0,1-.32-3.7c.21-1.14.47-2.26.78-3.34s.56-2.15.78-3.17a5.37,5.37,0,0,0-.32-3.14c.3.16.53.07.69-.28a5.71,5.71,0,0,0,.36-1.3,7.5,7.5,0,0,0,.09-1.66,13.18,13.18,0,0,0-.13-1.41,37.73,37.73,0,0,0,1.88-6q.69-3.06,1.24-6.08t1.23-5.84A33.49,33.49,0,0,1,537.66,92a5.62,5.62,0,0,1,2.71.17,3.37,3.37,0,0,1,1.88,1.14,26.86,26.86,0,0,0,5-5.55c1.47-2.15,3-4.24,4.44-6.29A31.54,31.54,0,0,1,556.82,76a13.67,13.67,0,0,1,7.06-3q2.21,1.5,5,3.22a14.72,14.72,0,0,1,4.49,4.36c.49.3,1,.61,1.42.94s.93.64,1.42.94v1.37a10.67,10.67,0,0,1,2.15,2.77A28.29,28.29,0,0,1,579.88,90c.46,1.18.9,2.39,1.33,3.6A24.39,24.39,0,0,0,582.68,97a2.37,2.37,0,0,0-.14,1,3.48,3.48,0,0,0,.19.82,8.82,8.82,0,0,1,.23.92,8.32,8.32,0,0,1,.09,1.24,12.52,12.52,0,0,1-3.17,7.86,22.69,22.69,0,0,1-6.78,5,64.91,64.91,0,0,1-8.48,3.4,72.62,72.62,0,0,0-8.16,3.15c0,.24.13.36.41.35s.35.17.23.54q2.74,1.56,4.26,2.52a29.91,29.91,0,0,0,2.84,1.61,15.43,15.43,0,0,0,2.94,1.07c1.07.28,2.55.61,4.45,1s3.37.72,4.44,1,2,.46,2.89.6,1.77.28,2.75.39,2.29.26,3.94.43a8,8,0,0,1,1.65,2.38,12,12,0,0,1,.92,2.75,8.71,8.71,0,0,1,.14,2.62,3.49,3.49,0,0,1-.78,2,.41.41,0,0,0,.5.32,2.94,2.94,0,0,1,.88,0,5,5,0,0,0-1.11,1.1l-.91,1.29a8,8,0,0,1-1.06,1.2,2.57,2.57,0,0,1-1.51.64c-2.2.87-5,.92-8.44.18a116.51,116.51,0,0,1-13.11-3.92c-2.63-.9-4.76-1.72-6.41-2.45a44,44,0,0,1-4.31-2.18,26.42,26.42,0,0,1-3.4-2.33q-1.56-1.26-3.57-3a.46.46,0,0,0-.32.38.49.49,0,0,1-.32.39,23.46,23.46,0,0,1-1.43,6,22.42,22.42,0,0,1-2.79,4.82c-1-.13-1.64,0-2,.38a6.63,6.63,0,0,1-1.24,1.08,2.31,2.31,0,0,1-1.38,0,5.31,5.31,0,0,1-.82-.46c-.25-.17-.52-.33-.83-.5a2.4,2.4,0,0,0-1.46-.1l-.55-1.57q-.29-.76-1.47-.6a3.2,3.2,0,0,0,.18-1.43,5.5,5.5,0,0,0-.27-1.08,8.4,8.4,0,0,1-.32-1A2.15,2.15,0,0,1,530.23,135.43Zm30.63-43.34a21.64,21.64,0,0,1-2.66,3.25c-1,1-1.94,2-2.89,3a21.53,21.53,0,0,0-2.52,3.4,13,13,0,0,0-1.56,4.33,33.29,33.29,0,0,0,8.07-2.46l8-3.48a9.37,9.37,0,0,0-2.39-5.4A9.79,9.79,0,0,0,560.86,92.09Z"/><path class="cls-2" d="M41.67,162.3l29.47-14.47c10.4-5.11,1.29-20.64-9.08-15.55L32.58,146.76c-10.39,5.1-1.28,20.63,9.09,15.54Z"/><path class="cls-3" d="M8.69,114.21H60.26c11.58,0,11.6-18,0-18H8.69c-11.58,0-11.6,18,0,18Z"/><path class="cls-4" d="M25.93,55.27l31.24,16.8c10.2,5.49,19.3-10,9.08-15.54L35,39.73c-10.2-5.49-19.31,10-9.09,15.54Z"/><path class="cls-2" d="M656.93,146.76l-29.47-14.48c-10.36-5.08-19.5,10.43-9.09,15.55l29.47,14.47c10.36,5.09,19.5-10.43,9.09-15.54Z"/><path class="cls-3" d="M680.82,96.21H629.25c-11.58,0-11.6,18,0,18h51.57c11.58,0,11.6-18,0-18Z"/><path class="cls-4" d="M654.5,39.73l-31.24,16.8c-10.2,5.49-1.13,21,9.09,15.54l31.23-16.8c10.21-5.49,1.13-21-9.08-15.54Z"/></g></g></svg>